# xmcd
#
# Track frame offsets:
#	150
#	15675
#	43223
#	59667
#	74427
#	100186
#	111817
#	127588
#	143981
#	154797
#	191303
#	201478
#
# Disc length: 2852 seconds
#
# Revision: 1
# Processed by: cddbd v1.4PL0 Copyright (c) Steve Scherf et al.
# Submitted via: EasyCDDAExtractor 5.0.6
#
DISCID=ac0b220c
DTITLE=Jimi Hendrix - Hey Joe
DYEAR=1900
DGENRE=Alternative
TTITLE0=Hey Joe
TTITLE1=Blues Blues
TTITLE2=Burning of The Midnight Lamp
TTITLE3=Foxy Lady
TTITLE4=Free Spirit
TTITLE5=Sweet Thing
TTITLE6=Highway Chile
TTITLE7=Manic Depression
TTITLE8=Little Wing
TTITLE9=Red House
TTITLE10=Star Spangled
TTITLE11=Purple Haze
EXTD=
EXTT0=
EXTT1=
EXTT2=
EXTT3=
EXTT4=
EXTT5=
EXTT6=
EXTT7=
EXTT8=
EXTT9=
EXTT10=
EXTT11=
PLAYORDER=
